<svg id="Facebook_Icon" data-name="Facebook Icon" xmlns="http://www.w3.org/2000/svg" width="79.185" height="79.184" viewBox="0 0 79.185 79.184">
  <g id="_01.facebook" data-name="01.facebook" transform="translate(0 0)">
    <ellipse id="background" cx="39.592" cy="39.592" rx="39.592" ry="39.592" fill="#334c8c"/>
    <path id="icon" d="M76.839,54.084l-.658,5.523a1.044,1.044,0,0,1-1.044.929H69.395V76.928a.741.741,0,0,1-.731.746H62.812a.741.741,0,0,1-.731-.752l.031-16.386H57.764a1.044,1.044,0,0,1-1.044-1.044V53.969a1.044,1.044,0,0,1,1.044-1.044h4.322V47.569c0-6.2,3.686-9.569,9.083-9.569h4.422a1.044,1.044,0,0,1,1.044,1.044V43.7a1.044,1.044,0,0,1-1.044,1.044H72.882c-2.934.047-3.487,1.451-3.487,3.55v4.62h6.426a1.044,1.044,0,0,1,1.018,1.175Z" transform="translate(-27.204 -18.257)" fill="#fff"/>
  </g>
</svg>
