<svg xmlns="http://www.w3.org/2000/svg" width="106.459" height="106.459" viewBox="0 0 106.459 106.459">
  <path id="graduate" d="M61.229,8a53.229,53.229,0,1,0,53.229,53.229A53.22,53.22,0,0,0,61.229,8ZM84.389,75.352a7.651,7.651,0,0,1-3.713,6.611,38.59,38.59,0,0,1-38.913,0,7.7,7.7,0,0,1-3.713-6.611V63.934L57,71.94a10.851,10.851,0,0,0,8.435,0l18.952-8.006V75.352Zm10.045,4.164a1.539,1.539,0,0,1-1.545,1.545H88.252a1.539,1.539,0,0,1-1.545-1.545V75.653a3.833,3.833,0,0,1,1.567-3.091A3.689,3.689,0,0,1,87.029,71a3.827,3.827,0,0,1,2-5.044V61.981l3.091-1.309v5.28A4.045,4.045,0,0,1,93.682,67.2a3.817,3.817,0,0,1-.816,5.366,3.833,3.833,0,0,1,1.567,3.091v3.863Zm.816-23.524L64.234,69.107a7.739,7.739,0,0,1-6.031,0L27.188,55.992a4.636,4.636,0,0,1,0-8.542L58.2,34.314a7.739,7.739,0,0,1,6.031,0L95.249,47.45a4.636,4.636,0,0,1,0,8.542Z" transform="translate(-8 -8)" fill="#fff"/>
</svg>
