<svg id="Instagram_Icon" data-name="Instagram Icon" xmlns="http://www.w3.org/2000/svg" xmlns:xlink="http://www.w3.org/1999/xlink" width="79.27" height="79.28" viewBox="0 0 79.27 79.28">
  <defs>
    <linearGradient id="linear-gradient" x1="0.146" y1="0.146" x2="0.854" y2="0.854" gradientUnits="objectBoundingBox">
      <stop offset="0" stop-color="#fae100"/>
      <stop offset="0.15" stop-color="#fcb720"/>
      <stop offset="0.3" stop-color="#ff7950"/>
      <stop offset="0.5" stop-color="#ff1c74"/>
      <stop offset="1" stop-color="#6c1cd1"/>
    </linearGradient>
  </defs>
  <g id="Circle" transform="translate(0 0)">
    <g id="_03.Instagram" data-name="03.Instagram" transform="translate(0 0)">
      <rect id="Background" width="79.185" height="79.184" rx="39.592" transform="translate(0.086 0.096)" fill="url(#linear-gradient)"/>
      <g id="Group_108" data-name="Group 108">
        <path id="Shade" d="M69.542,13.573A141.451,141.451,0,0,1,45.357,45.365,141.639,141.639,0,0,1,13.58,69.535q-1-.867-1.937-1.806a39.672,39.672,0,1,1,56.1-56.112q.934.946,1.8,1.956Z" transform="translate(-0.016 0)" fill="#fff" opacity="0.1"/>
        <g id="Icon" transform="translate(18.785 18.792)">
          <path id="Path_79" data-name="Path 79" d="M66.278,36H47.485A11.485,11.485,0,0,0,36,47.485V66.278A11.485,11.485,0,0,0,47.485,77.763H66.278A11.485,11.485,0,0,0,77.763,66.278V47.485A11.485,11.485,0,0,0,66.278,36Zm7.83,28.629a9.48,9.48,0,0,1-9.48,9.48H49.134a9.48,9.48,0,0,1-9.48-9.48V49.135a9.48,9.48,0,0,1,9.48-9.48H64.628a9.48,9.48,0,0,1,9.48,9.48Z" transform="translate(-36 -36)" fill="#fff"/>
          <path id="Path_80" data-name="Path 80" d="M73.875,58.582l-.1-.1-.084-.084a10.524,10.524,0,0,0-7.434-3.07A10.712,10.712,0,0,0,55.62,66.121a10.833,10.833,0,0,0,3.132,7.627A10.54,10.54,0,0,0,66.28,76.88a10.822,10.822,0,0,0,7.6-18.3ZM66.259,73.2a7.079,7.079,0,1,1,6.98-7.079A7.079,7.079,0,0,1,66.259,73.2Z" transform="translate(-45.377 -45.239)" fill="#fff"/>
          <path id="Path_81" data-name="Path 81" d="M97.8,52.038a2.548,2.548,0,0,1-2.532,2.568,2.511,2.511,0,0,1-1.785-.747,2.574,2.574,0,0,1,1.791-4.38,2.516,2.516,0,0,1,1.613.585l.052.052a1.591,1.591,0,0,1,.23.23l.057.063A2.568,2.568,0,0,1,97.8,52.038Z" transform="translate(-63.12 -42.443)" fill="#fff"/>
        </g>
      </g>
    </g>
  </g>
</svg>
