<svg id="Layer_1-2_38_" xmlns="http://www.w3.org/2000/svg" width="24.325" height="24.466" viewBox="0 0 24.325 24.466">
  <path id="Path_1" data-name="Path 1" d="M73.487,27.561a.259.259,0,0,1-.367,0l0,0a.259.259,0,0,1,0-.367l0,0a5.073,5.073,0,0,0,0-7.166.259.259,0,0,1,.366-.366A5.6,5.6,0,0,1,73.487,27.561Z" transform="translate(-54.161 -14.513)"/>
  <path id="Path_2" data-name="Path 2" d="M39.972,2.714a9.019,9.019,0,1,0-12.9,12.61c.047.048.094.1.142.142A9.019,9.019,0,0,0,39.972,2.714ZM38.809,14.307a7.379,7.379,0,1,1,0-10.436l0,0a7.33,7.33,0,0,1,.067,10.366Z" transform="translate(-18.217 0)"/>
  <path id="Path_3" data-name="Path 3" d="M7.764,55.709.795,62.678A1.781,1.781,0,1,0,3.312,65.2l6.967-6.972A9.567,9.567,0,0,1,7.764,55.709Z" transform="translate(-0.272 -41.255)"/>
</svg>
