<svg xmlns="http://www.w3.org/2000/svg" width="118.665" height="121.189" viewBox="0 0 118.665 121.189">
  <g id="love" transform="translate(-5.332)">
    <path id="Path_65" data-name="Path 65" d="M101.687,0H27.642A22.31,22.31,0,0,0,5.332,22.31V70.874a22.311,22.311,0,0,0,22.31,22.31H38.269a.915.915,0,0,1,.915.915v23.956a3.127,3.127,0,0,0,5.4,2.142L69.723,93.473a.915.915,0,0,1,.667-.288h31.3A22.311,22.311,0,0,0,124,70.874V22.31A22.311,22.311,0,0,0,101.687,0Z" transform="translate(0)" fill="#d31111"/>
    <path id="Path_66" data-name="Path 66" d="M48.57,94.288a.927.927,0,0,0-.886-.964H37.4c-11.929,0-21.6-10.519-21.6-23.494V18.689a25.458,25.458,0,0,1,.8-6.336A22.3,22.3,0,0,0,5.332,31.74V80.3a22.311,22.311,0,0,0,22.31,22.31H38.269a.915.915,0,0,1,.915.915v23.956a3.127,3.127,0,0,0,5.4,2.142l3.981-4.233V94.288Z" transform="translate(0 -9.429)" fill="#6d0909"/>
    <path id="Path_67" data-name="Path 67" d="M186.526,108.625h0a14.5,14.5,0,0,0-20.513,0l-3.2,3.2a1.954,1.954,0,0,1-2.763,0l-3.149-3.149a14.5,14.5,0,0,0-20.513,0h0a14.505,14.505,0,0,0,0,20.513l23.663,23.663a1.954,1.954,0,0,0,2.763,0l23.711-23.715A14.5,14.5,0,0,0,186.526,108.625Z" transform="translate(-96.793 -79.671)" fill="#ec5569"/>
    <path id="Path_68" data-name="Path 68" d="M186.526,108.625h0a14.5,14.5,0,0,0-20.513,0l-3.2,3.2a1.954,1.954,0,0,1-2.763,0l-3.149-3.149a14.5,14.5,0,0,0-20.513,0h0a14.505,14.505,0,0,0,0,20.513l23.663,23.663a1.954,1.954,0,0,0,2.763,0l23.711-23.715A14.5,14.5,0,0,0,186.526,108.625Z" transform="translate(-96.793 -79.671)" fill="#fff5f5"/>
    <path id="Path_69" data-name="Path 69" d="M143.977,129.365a14.5,14.5,0,0,1,0-20.513h0a14.431,14.431,0,0,1,6.463-3.741,14.5,14.5,0,0,0-14.05,3.741h0a14.505,14.505,0,0,0,0,20.513l23.663,23.663a1.954,1.954,0,0,0,2.763,0l2.412-2.412Z" transform="translate(-96.794 -79.847)" fill="#dce6eb"/>
  </g>
</svg>
