<svg xmlns="http://www.w3.org/2000/svg" width="105.861" height="105.861" viewBox="0 0 105.861 105.861">
  <path id="Path_57" data-name="Path 57" d="M52.93,0a52.93,52.93,0,1,0,52.93,52.93A52.929,52.929,0,0,0,52.93,0ZM79.677,54.539H77.5V76.73a4.241,4.241,0,0,1-4.241,4.241H61.108V66.638a8.177,8.177,0,0,0-16.355,0V80.971H32.6a4.241,4.241,0,0,1-4.241-4.241V54.539H26.184a4.26,4.26,0,0,1-2.735-7.526L47.482,26.87a8.485,8.485,0,0,1,10.9,0L82.412,47.013a4.26,4.26,0,0,1-2.735,7.526Z" transform="translate(0 0)" fill="#fff"/>
</svg>
