<svg xmlns="http://www.w3.org/2000/svg" width="95.822" height="95.822" viewBox="0 0 95.822 95.822">
  <path id="Path_58" data-name="Path 58" d="M63.211,15.8a47.911,47.911,0,1,0,47.911,47.911A47.92,47.92,0,0,0,63.211,15.8Zm18.75,36.008a1.028,1.028,0,0,1,1.154.876C84.967,68.249,66.1,77.485,54.97,66.458l-.04,1.413a1.016,1.016,0,0,1-1.035.975,1.037,1.037,0,0,1-1.015-1.035L53,63.791a1.344,1.344,0,0,1,.04-.279,1.024,1.024,0,0,1,1.274-.677l3.862,1.154A1.027,1.027,0,0,1,57.6,65.96l-.219-.06A14.528,14.528,0,0,0,81.086,52.962,1.021,1.021,0,0,1,81.961,51.808ZM66.933,44.065A10.723,10.723,0,0,1,67.55,65.5C53.3,65.323,52.721,45.06,66.933,44.065ZM54.891,42.97a16.573,16.573,0,0,1,23.448-.02l.04-1.413h0a1.026,1.026,0,0,1,2.05.06l-.119,4.021a1.165,1.165,0,0,1-.04.259,1.035,1.035,0,0,1-1.274.7l-3.862-1.154h0a1.008,1.008,0,0,1-.677-1.274c.02-.06.04-.1.06-.159a1.064,1.064,0,0,1,1.433-.458A14.54,14.54,0,0,0,52.2,56.446a1.3,1.3,0,0,1,0,.279,1.019,1.019,0,0,1-1.174.856,1.035,1.035,0,0,1-.856-.9A16.568,16.568,0,0,1,54.891,42.97ZM44.321,88.513a1.041,1.041,0,0,1-1.055,1.015l-4.419-.08a1.05,1.05,0,0,1-1.015-1.035l.259-14.491a1.041,1.041,0,0,1,1.055-1.015l4.419.08h0a1.037,1.037,0,0,1,1.015,1.035ZM72.527,87.4a9.82,9.82,0,0,1-7.862,1.453L51.885,85.746a5.419,5.419,0,0,0-3.782.478l-1.712.936.2-11.465a12.337,12.337,0,0,1,12.222-.139,4.317,4.317,0,0,0,2.15.6l9.992.02a4.5,4.5,0,0,1,4.26,3.065,4.156,4.156,0,0,1,.219.856l-11.724.02a1.019,1.019,0,0,0-1.015,1.015,1.037,1.037,0,0,0,1.015,1.035l12.162-.02a.747.747,0,0,0,.2-.02,1.7,1.7,0,0,0,1.473-1.891A4.075,4.075,0,0,0,77.4,79.4l6.927-3.822a5.334,5.334,0,0,1,5.315.08Z" transform="translate(-15.3 -15.8)" fill="#fff"/>
</svg>
