<svg xmlns="http://www.w3.org/2000/svg" width="96.511" height="96.511" viewBox="0 0 96.511 96.511">
  <path id="Path_61" data-name="Path 61" d="M53.756,5.5a48.256,48.256,0,1,0,48.256,48.256A48.267,48.267,0,0,0,53.756,5.5ZM39.944,77.257l-9.69-3.217V47.225l9.69,3.217ZM52.388,74.04,42.7,77.257V50.442l3.39-1.117,6.3,6.3ZM47.071,46.416a9.458,9.458,0,1,1,13.369,0L53.756,53.1ZM64.813,77.257l-9.69-3.217V55.624l6.3-6.3,3.39,1.117V77.257ZM77.257,74.04l-9.69,3.217V50.442l9.69-3.217Z" transform="translate(-5.5 -5.5)" fill="#fff"/>
</svg>
