<svg id="Twitter_Icon" data-name="Twitter Icon" xmlns="http://www.w3.org/2000/svg" width="79.185" height="79.184" viewBox="0 0 79.185 79.184">
  <g id="_02.twitter" data-name="02.twitter" transform="translate(0 0)">
    <ellipse id="background" cx="39.592" cy="39.592" rx="39.592" ry="39.592" fill="#00a6de"/>
    <path id="icon" d="M77.6,48.894a16.752,16.752,0,0,1-3.4,3.733,1.451,1.451,0,0,0-.522,1.133v.131a23.8,23.8,0,0,1-1.535,8.28,24.248,24.248,0,0,1-4.516,7.57,22.307,22.307,0,0,1-9.788,6.468,24.482,24.482,0,0,1-7.695,1.2,23.488,23.488,0,0,1-11.8-3.178.679.679,0,0,1-.326-.753.653.653,0,0,1,.637-.491h.992A15.786,15.786,0,0,0,48.494,70.3a8.572,8.572,0,0,1-6.786-5.826.449.449,0,0,1,.522-.579,7.873,7.873,0,0,0,1.441.136h.183a8.577,8.577,0,0,1-5-7.888.449.449,0,0,1,.663-.392,7.537,7.537,0,0,0,1.952.757,8.572,8.572,0,0,1-1.383-10.4.449.449,0,0,1,.736-.063,22.411,22.411,0,0,0,15.405,8.238h.042a.324.324,0,0,0,.313-.35,9.063,9.063,0,0,1,.2-3.132,8.306,8.306,0,0,1,5.586-5.972,9.183,9.183,0,0,1,2.709-.418,8.541,8.541,0,0,1,5.659,2.135,1.107,1.107,0,0,0,.736.282,1.121,1.121,0,0,0,.261-.037,15.66,15.66,0,0,0,4.176-1.728.444.444,0,0,1,.653.522,8.473,8.473,0,0,1-2.25,3.586,15.767,15.767,0,0,0,2.735-.924.449.449,0,0,1,.548.647Z" transform="translate(-18.258 -21.322)" fill="#fff"/>
  </g>
</svg>
