<svg id="Youtube_Icon" data-name="Youtube Icon" xmlns="http://www.w3.org/2000/svg" width="79.185" height="79.184" viewBox="0 0 79.185 79.184">
  <g id="_04.youtube" data-name="04.youtube" transform="translate(0 0)">
    <ellipse id="background" cx="39.592" cy="39.592" rx="39.592" ry="39.592" fill="#f20000"/>
    <path id="icon" d="M76.727,53.185c-.793-2.464-3.419-3.921-5.857-4.26a123.627,123.627,0,0,0-26.143,0c-2.417.339-5.043,1.817-5.836,4.26a49.563,49.563,0,0,0,0,19.091c.814,2.459,3.44,3.921,5.878,4.26a124.326,124.326,0,0,0,26.143,0c2.417-.339,5.043-1.822,5.836-4.26A49.563,49.563,0,0,0,76.727,53.185ZM53.074,70.329v-15.2l12.377,7.6C61.28,65.291,57.229,67.787,53.074,70.329Z" transform="translate(-18.239 -23.149)" fill="#fff"/>
  </g>
</svg>
